<?xml version="1.0" encoding="UTF-8"?>
<svg xmlns="http://www.w3.org/2000/svg" xmlns:xlink="http://www.w3.org/1999/xlink" width="375pt" height="374.999991pt" viewBox="0 0 375 374.999991" version="1.2">
<defs>
<clipPath id="clip1">
  <path d="M 100.433594 79.402344 L 274.304688 79.402344 L 274.304688 295.402344 L 100.433594 295.402344 Z M 100.433594 79.402344 "/>
</clipPath>
</defs>
<g id="surface1">
<g clip-path="url(#clip1)" clip-rule="nonzero">
<path style=" stroke:none;fill-rule:nonzero;fill:rgb(81.959534%,39.608765%,0.779724%);fill-opacity:1;" d="M 197.421875 171.546875 C 189.207031 171.546875 182.542969 164.855469 182.542969 156.609375 C 182.542969 148.363281 189.207031 141.671875 197.421875 141.671875 C 223.410156 141.671875 244.546875 120.457031 244.546875 94.375 C 244.546875 86.132812 251.210938 79.445312 259.429688 79.445312 C 267.648438 79.445312 274.3125 86.132812 274.3125 94.382812 C 274.3125 136.929688 239.824219 171.546875 197.421875 171.546875 Z M 130.195312 281.078125 C 130.195312 255 151.339844 233.785156 177.320312 233.785156 C 185.539062 233.785156 192.203125 227.09375 192.203125 218.847656 C 192.203125 210.597656 185.539062 203.910156 177.320312 203.910156 C 134.921875 203.910156 100.433594 238.527344 100.433594 281.078125 C 100.433594 289.328125 107.097656 296.015625 115.3125 296.015625 C 123.53125 296.015625 130.195312 289.328125 130.195312 281.078125 Z M 130.195312 281.078125 "/>
<path style=" stroke:none;fill-rule:nonzero;fill:rgb(97.648621%,56.469727%,14.898682%);fill-opacity:1;" d="M 197.421875 296.015625 C 189.207031 296.015625 182.542969 289.328125 182.542969 281.078125 C 182.542969 272.832031 189.207031 266.144531 197.421875 266.144531 C 223.410156 266.144531 244.546875 244.921875 244.546875 218.847656 C 244.546875 192.769531 223.40625 171.550781 197.421875 171.550781 C 189.207031 171.550781 182.542969 164.863281 182.542969 156.613281 C 182.542969 148.367188 189.207031 141.675781 197.421875 141.675781 C 239.824219 141.675781 274.3125 176.292969 274.3125 218.847656 C 274.3125 261.402344 239.824219 296.015625 197.421875 296.015625 Z M 192.203125 218.847656 C 192.203125 210.597656 185.539062 203.910156 177.320312 203.910156 C 151.332031 203.910156 130.195312 182.691406 130.195312 156.613281 C 130.195312 130.539062 151.339844 109.316406 177.320312 109.316406 C 185.539062 109.316406 192.203125 102.628906 192.203125 94.382812 C 192.203125 86.132812 185.539062 79.445312 177.320312 79.445312 C 134.921875 79.445312 100.433594 114.058594 100.433594 156.613281 C 100.433594 199.167969 134.921875 233.785156 177.320312 233.785156 C 185.539062 233.785156 192.203125 227.09375 192.203125 218.847656 Z M 192.203125 218.847656 "/>
<path style=" stroke:none;fill-rule:nonzero;fill:rgb(89.7995%,46.669006%,3.919983%);fill-opacity:1;" d="M 222.320312 134.519531 C 235.660156 126.15625 244.546875 111.292969 244.546875 94.382812 C 244.550781 86.132812 251.210938 79.445312 259.429688 79.445312 C 267.648438 79.445312 274.3125 86.132812 274.3125 94.382812 C 274.3125 116.1875 265.253906 135.902344 250.714844 149.949219 C 242.546875 142.941406 232.90625 137.617188 222.320312 134.519531 Z M 124.027344 225.507812 C 109.492188 239.554688 100.433594 259.273438 100.433594 281.078125 C 100.433594 289.328125 107.097656 296.015625 115.3125 296.015625 C 123.53125 296.015625 130.195312 289.328125 130.195312 281.078125 C 130.195312 264.167969 139.089844 249.300781 152.421875 240.9375 C 141.84375 237.84375 132.195312 232.519531 124.027344 225.507812 Z M 124.027344 225.507812 "/>
</g>
</g>
</svg>
